<svg xmlns="http://www.w3.org/2000/svg" xmlns:xlink="http://www.w3.org/1999/xlink" width="350" zoomAndPan="magnify" viewBox="0 0 262.5 56.249996" height="75" preserveAspectRatio="xMidYMid meet" version="1.0"><defs><g/><clipPath id="9c90b5beae"><path d="M 16 11.398438 L 30.523438 11.398438 L 30.523438 25 L 16 25 Z M 16 11.398438 " clip-rule="nonzero"/></clipPath><clipPath id="3ac0fa9d23"><path d="M 2.398438 12 L 29 12 L 29 38.78125 L 2.398438 38.78125 Z M 2.398438 12 " clip-rule="nonzero"/></clipPath><clipPath id="a2857cffc3"><path d="M 30.242188 34 L 55 34 L 55 42 L 30.242188 42 Z M 30.242188 34 " clip-rule="nonzero"/></clipPath><clipPath id="2f2fca9eea"><path d="M 30.242188 8 L 52 8 L 52 18 L 30.242188 18 Z M 30.242188 8 " clip-rule="nonzero"/></clipPath><clipPath id="cc08c485c5"><path d="M 53 36 L 60.242188 36 L 60.242188 43.964844 L 53 43.964844 Z M 53 36 " clip-rule="nonzero"/></clipPath><clipPath id="a830de3c09"><path d="M 53 16 L 60.242188 16 L 60.242188 24 L 53 24 Z M 53 16 " clip-rule="nonzero"/></clipPath><clipPath id="d956c94421"><path d="M 50 5.476562 L 58 5.476562 L 58 13 L 50 13 Z M 50 5.476562 " clip-rule="nonzero"/></clipPath></defs><path fill="#8065f1" d="M 16.742188 16.039062 C 16.742188 15.925781 16.785156 15.824219 16.867188 15.742188 C 16.949219 15.660156 17.046875 15.621094 17.164062 15.621094 C 17.742188 15.621094 18.3125 15.675781 18.878906 15.789062 C 19.441406 15.902344 19.992188 16.070312 20.523438 16.292969 C 21.058594 16.511719 21.5625 16.78125 22.042969 17.105469 C 22.523438 17.425781 22.964844 17.789062 23.375 18.195312 C 23.78125 18.605469 24.148438 19.046875 24.46875 19.527344 C 24.789062 20.007812 25.058594 20.511719 25.28125 21.046875 C 25.5 21.578125 25.667969 22.128906 25.78125 22.695312 C 25.894531 23.257812 25.949219 23.832031 25.949219 24.40625 C 25.949219 24.523438 25.910156 24.621094 25.828125 24.703125 C 25.746094 24.785156 25.648438 24.828125 25.53125 24.828125 C 25.414062 24.828125 25.316406 24.785156 25.234375 24.703125 C 25.152344 24.621094 25.109375 24.523438 25.109375 24.40625 C 25.109375 23.886719 25.058594 23.367188 24.957031 22.855469 C 24.855469 22.347656 24.703125 21.847656 24.503906 21.367188 C 24.304688 20.886719 24.058594 20.425781 23.769531 19.992188 C 23.480469 19.558594 23.148438 19.160156 22.78125 18.789062 C 22.410156 18.421875 22.011719 18.09375 21.578125 17.800781 C 21.144531 17.511719 20.683594 17.265625 20.203125 17.066406 C 19.722656 16.867188 19.226562 16.714844 18.714844 16.613281 C 18.203125 16.511719 17.683594 16.460938 17.164062 16.460938 C 17.046875 16.460938 16.949219 16.417969 16.867188 16.335938 C 16.785156 16.253906 16.742188 16.15625 16.742188 16.039062 Z M 16.742188 16.039062 " fill-opacity="1" fill-rule="nonzero"/><g clip-path="url(#9c90b5beae)"><path fill="#8065f1" d="M 30.1875 24.40625 C 30.1875 24.523438 30.144531 24.621094 30.0625 24.703125 C 29.980469 24.785156 29.882812 24.828125 29.765625 24.828125 C 29.648438 24.828125 29.550781 24.785156 29.46875 24.703125 C 29.386719 24.621094 29.347656 24.523438 29.347656 24.40625 C 29.34375 23.605469 29.265625 22.816406 29.109375 22.03125 C 28.953125 21.246094 28.722656 20.484375 28.417969 19.746094 C 28.109375 19.007812 27.734375 18.304688 27.289062 17.640625 C 26.847656 16.976562 26.339844 16.359375 25.777344 15.792969 C 25.210938 15.226562 24.59375 14.722656 23.929688 14.277344 C 23.265625 13.832031 22.5625 13.457031 21.824219 13.152344 C 21.085938 12.84375 20.324219 12.613281 19.539062 12.457031 C 18.753906 12.300781 17.964844 12.222656 17.164062 12.21875 C 17.046875 12.21875 16.949219 12.179688 16.867188 12.097656 C 16.785156 12.015625 16.742188 11.917969 16.742188 11.800781 C 16.742188 11.683594 16.785156 11.585938 16.867188 11.503906 C 16.949219 11.421875 17.046875 11.378906 17.164062 11.378906 C 18.019531 11.382812 18.863281 11.464844 19.703125 11.632812 C 20.542969 11.800781 21.355469 12.050781 22.144531 12.375 C 22.933594 12.703125 23.683594 13.105469 24.394531 13.582031 C 25.105469 14.058594 25.765625 14.597656 26.367188 15.203125 C 26.972656 15.804688 27.511719 16.464844 27.988281 17.175781 C 28.460938 17.886719 28.863281 18.636719 29.191406 19.425781 C 29.519531 20.214844 29.765625 21.027344 29.933594 21.867188 C 30.101562 22.707031 30.183594 23.550781 30.1875 24.40625 Z M 30.1875 24.40625 " fill-opacity="1" fill-rule="nonzero"/></g><path fill="#8065f1" d="M 16.742188 20.273438 C 16.742188 20.160156 16.785156 20.058594 16.867188 19.976562 C 16.949219 19.894531 17.046875 19.855469 17.164062 19.855469 C 17.460938 19.855469 17.757812 19.886719 18.050781 19.945312 C 18.339844 20.003906 18.625 20.089844 18.898438 20.207031 C 19.175781 20.320312 19.4375 20.460938 19.683594 20.628906 C 19.933594 20.792969 20.160156 20.984375 20.371094 21.195312 C 20.582031 21.40625 20.769531 21.636719 20.933594 21.882812 C 21.101562 22.132812 21.238281 22.394531 21.351562 22.667969 C 21.46875 22.945312 21.554688 23.230469 21.609375 23.519531 C 21.667969 23.8125 21.699219 24.109375 21.699219 24.40625 C 21.699219 24.523438 21.660156 24.625 21.578125 24.707031 C 21.492188 24.789062 21.394531 24.828125 21.277344 24.828125 C 21.164062 24.820312 21.070312 24.777344 20.988281 24.695312 C 20.90625 24.617188 20.863281 24.519531 20.859375 24.40625 C 20.859375 23.914062 20.765625 23.441406 20.574219 22.988281 C 20.386719 22.53125 20.121094 22.132812 19.773438 21.785156 C 19.425781 21.4375 19.023438 21.167969 18.570312 20.980469 C 18.117188 20.789062 17.640625 20.695312 17.148438 20.695312 C 17.035156 20.691406 16.941406 20.648438 16.863281 20.566406 C 16.78125 20.484375 16.742188 20.386719 16.742188 20.273438 Z M 16.742188 20.273438 " fill-opacity="1" fill-rule="nonzero"/><g clip-path="url(#3ac0fa9d23)"><path fill="#8065f1" d="M 28.746094 33.378906 L 28.746094 34.191406 C 28.746094 34.851562 28.507812 35.417969 28.042969 35.882812 L 25.84375 38.0625 C 25.382812 38.523438 24.828125 38.753906 24.175781 38.757812 L 24.078125 38.757812 C 23.378906 38.726562 22.683594 38.664062 21.992188 38.570312 C 21.300781 38.476562 20.613281 38.347656 19.933594 38.191406 C 19.25 38.03125 18.578125 37.839844 17.914062 37.621094 C 17.253906 37.398438 16.601562 37.148438 15.960938 36.867188 C 15.320312 36.585938 14.695312 36.273438 14.082031 35.9375 C 13.472656 35.597656 12.878906 35.230469 12.300781 34.835938 C 11.722656 34.441406 11.167969 34.019531 10.628906 33.574219 C 10.089844 33.125 9.574219 32.65625 9.082031 32.160156 C 8.585938 31.667969 8.117188 31.152344 7.667969 30.613281 C 7.222656 30.074219 6.800781 29.515625 6.40625 28.941406 C 6.011719 28.363281 5.644531 27.769531 5.308594 27.15625 C 4.96875 26.546875 4.65625 25.921875 4.375 25.28125 C 4.09375 24.640625 3.84375 23.988281 3.621094 23.324219 C 3.402344 22.660156 3.210938 21.988281 3.054688 21.308594 C 2.894531 20.628906 2.769531 19.941406 2.675781 19.246094 C 2.582031 18.554688 2.519531 17.859375 2.488281 17.160156 C 2.453125 16.464844 2.679688 15.867188 3.175781 15.375 L 5.355469 13.199219 C 5.824219 12.730469 6.386719 12.496094 7.050781 12.492188 L 7.847656 12.492188 C 8.34375 12.492188 8.796875 12.636719 9.207031 12.917969 C 9.613281 13.199219 9.90625 13.570312 10.082031 14.035156 L 12.011719 19.164062 C 12.171875 19.589844 12.203125 20.023438 12.113281 20.472656 C 12.023438 20.917969 11.824219 21.304688 11.511719 21.636719 L 10.710938 22.480469 C 10.460938 22.746094 10.324219 23.058594 10.296875 23.421875 C 10.269531 23.785156 10.359375 24.117188 10.566406 24.417969 C 12.269531 26.890625 14.355469 28.988281 16.820312 30.707031 C 17.117188 30.902344 17.445312 30.980469 17.800781 30.949219 C 18.15625 30.917969 18.464844 30.777344 18.722656 30.53125 L 19.582031 29.71875 C 19.914062 29.40625 20.300781 29.207031 20.746094 29.117188 C 21.191406 29.027344 21.628906 29.0625 22.054688 29.21875 L 27.183594 31.148438 C 27.652344 31.320312 28.027344 31.613281 28.3125 32.019531 C 28.597656 32.425781 28.742188 32.878906 28.746094 33.378906 Z M 28.746094 33.378906 " fill-opacity="1" fill-rule="nonzero"/></g><g fill="#8065f1" fill-opacity="1"><g transform="translate(62.778429, 38.910306)"><g><path d="M 12.59375 0.296875 C 10.65625 0.296875 8.910156 -0.0390625 7.359375 -0.71875 C 5.816406 -1.394531 4.601562 -2.351562 3.71875 -3.59375 C 2.84375 -4.84375 2.40625 -6.296875 2.40625 -7.953125 L 7.453125 -7.953125 C 7.566406 -6.710938 8.054688 -5.691406 8.921875 -4.890625 C 9.796875 -4.085938 11.019531 -3.6875 12.59375 -3.6875 C 14.21875 -3.6875 15.484375 -4.078125 16.390625 -4.859375 C 17.304688 -5.648438 17.765625 -6.664062 17.765625 -7.90625 C 17.765625 -8.875 17.484375 -9.660156 16.921875 -10.265625 C 16.359375 -10.878906 15.65625 -11.347656 14.8125 -11.671875 C 13.96875 -12.003906 12.800781 -12.367188 11.3125 -12.765625 C 9.425781 -13.253906 7.894531 -13.753906 6.71875 -14.265625 C 5.550781 -14.773438 4.550781 -15.566406 3.71875 -16.640625 C 2.894531 -17.722656 2.484375 -19.160156 2.484375 -20.953125 C 2.484375 -22.609375 2.894531 -24.054688 3.71875 -25.296875 C 4.550781 -26.546875 5.710938 -27.5 7.203125 -28.15625 C 8.691406 -28.820312 10.421875 -29.15625 12.390625 -29.15625 C 15.171875 -29.15625 17.453125 -28.457031 19.234375 -27.0625 C 21.015625 -25.675781 22.003906 -23.765625 22.203125 -21.328125 L 16.984375 -21.328125 C 16.898438 -22.378906 16.398438 -23.273438 15.484375 -24.015625 C 14.578125 -24.765625 13.378906 -25.140625 11.890625 -25.140625 C 10.535156 -25.140625 9.429688 -24.796875 8.578125 -24.109375 C 7.722656 -23.421875 7.296875 -22.425781 7.296875 -21.125 C 7.296875 -20.238281 7.5625 -19.507812 8.09375 -18.9375 C 8.632812 -18.375 9.316406 -17.925781 10.140625 -17.59375 C 10.972656 -17.269531 12.109375 -16.914062 13.546875 -16.53125 C 15.453125 -16 17.003906 -15.472656 18.203125 -14.953125 C 19.398438 -14.429688 20.421875 -13.625 21.265625 -12.53125 C 22.109375 -11.4375 22.53125 -9.976562 22.53125 -8.15625 C 22.53125 -6.695312 22.132812 -5.316406 21.34375 -4.015625 C 20.5625 -2.722656 19.414062 -1.679688 17.90625 -0.890625 C 16.40625 -0.0976562 14.632812 0.296875 12.59375 0.296875 Z M 12.59375 0.296875 "/></g></g></g><g fill="#8065f1" fill-opacity="1"><g transform="translate(86.050213, 38.910306)"><g><path d="M 30.734375 -23.203125 C 32.523438 -23.203125 34.128906 -22.828125 35.546875 -22.078125 C 36.972656 -21.328125 38.09375 -20.21875 38.90625 -18.75 C 39.726562 -17.289062 40.140625 -15.53125 40.140625 -13.46875 L 40.140625 0 L 35.453125 0 L 35.453125 -12.765625 C 35.453125 -14.804688 34.941406 -16.367188 33.921875 -17.453125 C 32.898438 -18.546875 31.503906 -19.09375 29.734375 -19.09375 C 27.972656 -19.09375 26.570312 -18.546875 25.53125 -17.453125 C 24.5 -16.367188 23.984375 -14.804688 23.984375 -12.765625 L 23.984375 0 L 19.296875 0 L 19.296875 -12.765625 C 19.296875 -14.804688 18.785156 -16.367188 17.765625 -17.453125 C 16.742188 -18.546875 15.351562 -19.09375 13.59375 -19.09375 C 11.820312 -19.09375 10.414062 -18.546875 9.375 -17.453125 C 8.34375 -16.367188 7.828125 -14.804688 7.828125 -12.765625 L 7.828125 0 L 3.109375 0 L 3.109375 -22.828125 L 7.828125 -22.828125 L 7.828125 -20.21875 C 8.597656 -21.15625 9.578125 -21.882812 10.765625 -22.40625 C 11.953125 -22.9375 13.222656 -23.203125 14.578125 -23.203125 C 16.398438 -23.203125 18.03125 -22.8125 19.46875 -22.03125 C 20.90625 -21.257812 22.007812 -20.144531 22.78125 -18.6875 C 23.46875 -20.0625 24.539062 -21.15625 26 -21.96875 C 27.46875 -22.789062 29.046875 -23.203125 30.734375 -23.203125 Z M 30.734375 -23.203125 "/></g></g></g><g fill="#8065f1" fill-opacity="1"><g transform="translate(127.335081, 38.910306)"><g><path d="M 1.53125 -11.515625 C 1.53125 -13.804688 2.003906 -15.832031 2.953125 -17.59375 C 3.910156 -19.363281 5.207031 -20.738281 6.84375 -21.71875 C 8.488281 -22.707031 10.304688 -23.203125 12.296875 -23.203125 C 14.097656 -23.203125 15.664062 -22.847656 17 -22.140625 C 18.34375 -21.429688 19.414062 -20.554688 20.21875 -19.515625 L 20.21875 -22.828125 L 24.984375 -22.828125 L 24.984375 0 L 20.21875 0 L 20.21875 -3.390625 C 19.414062 -2.316406 18.320312 -1.421875 16.9375 -0.703125 C 15.5625 0.015625 13.988281 0.375 12.21875 0.375 C 10.257812 0.375 8.460938 -0.128906 6.828125 -1.140625 C 5.203125 -2.148438 3.910156 -3.554688 2.953125 -5.359375 C 2.003906 -7.171875 1.53125 -9.222656 1.53125 -11.515625 Z M 20.21875 -11.4375 C 20.21875 -13.007812 19.890625 -14.375 19.234375 -15.53125 C 18.585938 -16.6875 17.738281 -17.566406 16.6875 -18.171875 C 15.644531 -18.785156 14.515625 -19.09375 13.296875 -19.09375 C 12.078125 -19.09375 10.941406 -18.796875 9.890625 -18.203125 C 8.847656 -17.609375 8 -16.738281 7.34375 -15.59375 C 6.695312 -14.445312 6.375 -13.085938 6.375 -11.515625 C 6.375 -9.941406 6.695312 -8.5625 7.34375 -7.375 C 8 -6.1875 8.859375 -5.28125 9.921875 -4.65625 C 10.984375 -4.039062 12.109375 -3.734375 13.296875 -3.734375 C 14.515625 -3.734375 15.644531 -4.035156 16.6875 -4.640625 C 17.738281 -5.242188 18.585938 -6.132812 19.234375 -7.3125 C 19.890625 -8.488281 20.21875 -9.863281 20.21875 -11.4375 Z M 20.21875 -11.4375 "/></g></g></g><g fill="#8065f1" fill-opacity="1"><g transform="translate(153.671152, 38.910306)"><g><path d="M 7.828125 -19.515625 C 8.515625 -20.671875 9.429688 -21.570312 10.578125 -22.21875 C 11.722656 -22.875 13.082031 -23.203125 14.65625 -23.203125 L 14.65625 -18.3125 L 13.46875 -18.3125 C 11.613281 -18.3125 10.207031 -17.835938 9.25 -16.890625 C 8.300781 -15.953125 7.828125 -14.328125 7.828125 -12.015625 L 7.828125 0 L 3.109375 0 L 3.109375 -22.828125 L 7.828125 -22.828125 Z M 7.828125 -19.515625 "/></g></g></g><g fill="#8065f1" fill-opacity="1"><g transform="translate(167.832867, 38.910306)"><g><path d="M 8.609375 -18.96875 L 8.609375 -6.34375 C 8.609375 -5.476562 8.804688 -4.859375 9.203125 -4.484375 C 9.609375 -4.117188 10.296875 -3.9375 11.265625 -3.9375 L 14.171875 -3.9375 L 14.171875 0 L 10.4375 0 C 8.3125 0 6.679688 -0.492188 5.546875 -1.484375 C 4.421875 -2.484375 3.859375 -4.101562 3.859375 -6.34375 L 3.859375 -18.96875 L 1.15625 -18.96875 L 1.15625 -22.828125 L 3.859375 -22.828125 L 3.859375 -28.5 L 8.609375 -28.5 L 8.609375 -22.828125 L 14.171875 -22.828125 L 14.171875 -18.96875 Z M 8.609375 -18.96875 "/></g></g></g><g fill="#ff6600" fill-opacity="1"><g transform="translate(181.499782, 38.910306)"><g><path d="M 7.828125 -3.8125 L 17.5625 -3.8125 L 17.5625 0 L 3.109375 0 L 3.109375 -28.78125 L 7.828125 -28.78125 Z M 7.828125 -3.8125 "/></g></g></g><g fill="#ff6600" fill-opacity="1"><g transform="translate(198.146064, 38.910306)"><g><path d="M 5.515625 -25.84375 C 4.648438 -25.84375 3.925781 -26.132812 3.34375 -26.71875 C 2.769531 -27.300781 2.484375 -28.019531 2.484375 -28.875 C 2.484375 -29.726562 2.769531 -30.441406 3.34375 -31.015625 C 3.925781 -31.597656 4.648438 -31.890625 5.515625 -31.890625 C 6.335938 -31.890625 7.035156 -31.597656 7.609375 -31.015625 C 8.191406 -30.441406 8.484375 -29.726562 8.484375 -28.875 C 8.484375 -28.019531 8.191406 -27.300781 7.609375 -26.71875 C 7.035156 -26.132812 6.335938 -25.84375 5.515625 -25.84375 Z M 7.828125 -22.828125 L 7.828125 0 L 3.109375 0 L 3.109375 -22.828125 Z M 7.828125 -22.828125 "/></g></g></g><g fill="#ff6600" fill-opacity="1"><g transform="translate(207.338659, 38.910306)"><g><path d="M 14.625 -23.203125 C 16.414062 -23.203125 18.019531 -22.828125 19.4375 -22.078125 C 20.863281 -21.328125 21.976562 -20.21875 22.78125 -18.75 C 23.582031 -17.289062 23.984375 -15.53125 23.984375 -13.46875 L 23.984375 0 L 19.296875 0 L 19.296875 -12.765625 C 19.296875 -14.804688 18.785156 -16.367188 17.765625 -17.453125 C 16.742188 -18.546875 15.351562 -19.09375 13.59375 -19.09375 C 11.820312 -19.09375 10.414062 -18.546875 9.375 -17.453125 C 8.34375 -16.367188 7.828125 -14.804688 7.828125 -12.765625 L 7.828125 0 L 3.109375 0 L 3.109375 -22.828125 L 7.828125 -22.828125 L 7.828125 -20.21875 C 8.597656 -21.15625 9.582031 -21.882812 10.78125 -22.40625 C 11.988281 -22.9375 13.269531 -23.203125 14.625 -23.203125 Z M 14.625 -23.203125 "/></g></g></g><g fill="#ff6600" fill-opacity="1"><g transform="translate(232.473868, 38.910306)"><g><path d="M 24.03125 -11.96875 C 24.03125 -11.113281 23.972656 -10.34375 23.859375 -9.65625 L 6.421875 -9.65625 C 6.554688 -7.832031 7.226562 -6.367188 8.4375 -5.265625 C 9.65625 -4.160156 11.148438 -3.609375 12.921875 -3.609375 C 15.460938 -3.609375 17.257812 -4.671875 18.3125 -6.796875 L 23.40625 -6.796875 C 22.71875 -4.691406 21.46875 -2.96875 19.65625 -1.625 C 17.84375 -0.289062 15.597656 0.375 12.921875 0.375 C 10.742188 0.375 8.789062 -0.113281 7.0625 -1.09375 C 5.332031 -2.070312 3.976562 -3.453125 3 -5.234375 C 2.019531 -7.015625 1.53125 -9.082031 1.53125 -11.4375 C 1.53125 -13.78125 2.003906 -15.84375 2.953125 -17.625 C 3.910156 -19.40625 5.25 -20.78125 6.96875 -21.75 C 8.695312 -22.71875 10.679688 -23.203125 12.921875 -23.203125 C 15.078125 -23.203125 16.992188 -22.726562 18.671875 -21.78125 C 20.359375 -20.84375 21.671875 -19.523438 22.609375 -17.828125 C 23.554688 -16.128906 24.03125 -14.175781 24.03125 -11.96875 Z M 19.09375 -13.46875 C 19.0625 -15.207031 18.4375 -16.597656 17.21875 -17.640625 C 16.007812 -18.691406 14.507812 -19.21875 12.71875 -19.21875 C 11.082031 -19.21875 9.6875 -18.695312 8.53125 -17.65625 C 7.375 -16.625 6.6875 -15.226562 6.46875 -13.46875 Z M 19.09375 -13.46875 "/></g></g></g><g clip-path="url(#a2857cffc3)"><path fill="#8065f1" d="M 54.058594 41.019531 L 48.890625 41.019531 C 48.710938 41.019531 48.542969 40.945312 48.417969 40.8125 L 43.441406 35.644531 L 31.339844 35.644531 C 30.976562 35.644531 30.679688 35.351562 30.679688 34.984375 C 30.679688 34.621094 30.976562 34.324219 31.339844 34.324219 L 43.726562 34.324219 C 43.902344 34.324219 44.078125 34.402344 44.199219 34.53125 L 49.171875 39.695312 L 54.058594 39.695312 C 54.425781 39.695312 54.71875 39.992188 54.71875 40.355469 C 54.71875 40.71875 54.425781 41.019531 54.058594 41.019531 " fill-opacity="1" fill-rule="nonzero"/></g><path fill="#8065f1" d="M 48.996094 23.851562 L 36.128906 23.851562 C 35.765625 23.851562 35.46875 23.550781 35.46875 23.191406 C 35.46875 22.824219 35.765625 22.53125 36.128906 22.53125 L 48.820312 22.53125 L 53.492188 19.835938 C 53.804688 19.65625 54.214844 19.761719 54.394531 20.078125 C 54.574219 20.398438 54.46875 20.800781 54.152344 20.980469 L 49.324219 23.761719 C 49.226562 23.820312 49.109375 23.851562 48.996094 23.851562 " fill-opacity="1" fill-rule="nonzero"/><g clip-path="url(#2f2fca9eea)"><path fill="#8065f1" d="M 41.191406 17.984375 L 31.113281 17.984375 C 30.746094 17.984375 30.449219 17.683594 30.449219 17.320312 C 30.449219 16.957031 30.746094 16.660156 31.113281 16.660156 L 40.832031 16.660156 L 45.894531 8.574219 C 46.011719 8.382812 46.222656 8.265625 46.453125 8.265625 L 51.339844 8.265625 C 51.707031 8.265625 52 8.5625 52 8.925781 C 52 9.289062 51.707031 9.585938 51.339844 9.585938 L 46.816406 9.585938 L 41.753906 17.671875 C 41.636719 17.863281 41.425781 17.984375 41.191406 17.984375 " fill-opacity="1" fill-rule="nonzero"/></g><g clip-path="url(#cc08c485c5)"><path fill="#8065f1" d="M 56.839844 38.234375 C 55.667969 38.234375 54.71875 39.183594 54.71875 40.355469 C 54.71875 41.523438 55.667969 42.472656 56.839844 42.472656 C 58.007812 42.472656 58.957031 41.523438 58.957031 40.355469 C 58.957031 39.183594 58.007812 38.234375 56.839844 38.234375 Z M 56.839844 43.792969 C 54.941406 43.792969 53.398438 42.25 53.398438 40.355469 C 53.398438 38.457031 54.941406 36.914062 56.839844 36.914062 C 58.734375 36.914062 60.277344 38.457031 60.277344 40.355469 C 60.277344 42.25 58.734375 43.792969 56.839844 43.792969 " fill-opacity="1" fill-rule="nonzero"/></g><g clip-path="url(#a830de3c09)"><path fill="#8065f1" d="M 56.597656 18.292969 C 55.433594 18.292969 54.480469 19.242188 54.480469 20.410156 C 54.480469 21.578125 55.433594 22.53125 56.597656 22.53125 C 57.769531 22.53125 58.71875 21.578125 58.71875 20.410156 C 58.71875 19.242188 57.769531 18.292969 56.597656 18.292969 Z M 56.597656 23.851562 C 54.703125 23.851562 53.160156 22.308594 53.160156 20.410156 C 53.160156 18.515625 54.703125 16.972656 56.597656 16.972656 C 58.496094 16.972656 60.042969 18.515625 60.042969 20.410156 C 60.042969 22.308594 58.496094 23.851562 56.597656 23.851562 " fill-opacity="1" fill-rule="nonzero"/></g><g clip-path="url(#d956c94421)"><path fill="#8065f1" d="M 54.121094 6.808594 C 52.949219 6.808594 52 7.757812 52 8.925781 C 52 10.097656 52.949219 11.046875 54.121094 11.046875 C 55.289062 11.046875 56.238281 10.097656 56.238281 8.925781 C 56.238281 7.757812 55.289062 6.808594 54.121094 6.808594 Z M 54.121094 12.367188 C 52.222656 12.367188 50.679688 10.824219 50.679688 8.925781 C 50.679688 7.03125 52.222656 5.488281 54.121094 5.488281 C 56.015625 5.488281 57.558594 7.03125 57.558594 8.925781 C 57.558594 10.824219 56.015625 12.367188 54.121094 12.367188 " fill-opacity="1" fill-rule="nonzero"/></g><path fill="#8065f1" d="M 45.949219 30.050781 L 34.304688 30.050781 C 33.945312 30.050781 33.644531 29.753906 33.644531 29.390625 C 33.644531 29.023438 33.945312 28.726562 34.304688 28.726562 L 45.949219 28.726562 C 46.316406 28.726562 46.609375 29.023438 46.609375 29.390625 C 46.609375 29.753906 46.316406 30.050781 45.949219 30.050781 " fill-opacity="1" fill-rule="nonzero"/><path fill="#8065f1" d="M 48.292969 27.707031 C 47.371094 27.707031 46.609375 28.460938 46.609375 29.390625 C 46.609375 30.316406 47.371094 31.070312 48.292969 31.070312 C 49.222656 31.070312 49.976562 30.316406 49.976562 29.390625 C 49.976562 28.460938 49.222656 27.707031 48.292969 27.707031 Z M 48.292969 32.394531 C 46.636719 32.394531 45.289062 31.046875 45.289062 29.390625 C 45.289062 27.730469 46.636719 26.386719 48.292969 26.386719 C 49.949219 26.386719 51.296875 27.730469 51.296875 29.390625 C 51.296875 31.046875 49.949219 32.394531 48.292969 32.394531 " fill-opacity="1" fill-rule="nonzero"/></svg>